<?xml version="1.0" encoding="UTF-8"?>
<svg width="173px" height="30px" viewBox="0 0 173 30" version="1.1" xmlns="http://www.w3.org/2000/svg" xmlns:xlink="http://www.w3.org/1999/xlink">
    <!-- Generator: sketchtool 41 (35326) - http://www.bohemiancoding.com/sketch -->
    <title>3DBEB7C5-5050-4CBC-B584-992E6D4F2CA6</title>
    <desc>Created with sketchtool.</desc>
    <defs></defs>
    <g id="Barcelona-Dashboard" stroke="none" stroke-width="1" fill="none" fill-rule="evenodd">
        <g id="desktop-hd---barcelona-color-5" transform="translate(-100.000000, -25.000000)">
            <g id="header">
                <g id="barcelona-logo-text-color-1" transform="translate(100.000000, 25.000000)">
                    <g id="Group" transform="translate(1.395349, 0.000000)" fill="#CFD8DC">
                        <path d="M15.1930845,5.4 C15.1930845,1.875 13.2735618,0 9.73561812,0 L0.702570379,0 C0.32619339,0 0.100367197,0.1875 0.100367197,0.6 L0.100367197,29.4 C0.100367197,29.775 0.32619339,30 0.702570379,30 L9.73561812,30 C13.2735618,30 15.1930845,28.125 15.1930845,24.6 L15.1930845,17.7 C15.1930845,16.3125 14.1768666,15.2625 12.8219094,15.0375 L12.8219094,14.9625 C14.1768666,14.7375 15.1930845,13.6875 15.1930845,12.3 L15.1930845,5.4 Z M10.1872705,11.0625 C10.1872705,12 9.66034272,12.525 8.68176255,12.525 L5.25673195,12.525 L5.25673195,4.95 L8.68176255,4.95 C9.69798042,4.95 10.1872705,5.475 10.1872705,6.45 L10.1872705,11.0625 Z M10.1872705,23.55 C10.1872705,24.5625 9.66034272,25.05 8.68176255,25.05 L5.25673195,25.05 L5.25673195,17.475 L8.68176255,17.475 C9.69798042,17.475 10.1872705,18 10.1872705,18.975 L10.1872705,23.55 Z M36.3454712,30 C36.7971236,30 36.9476744,29.775 36.872399,29.3625 L30.624541,0.525 C30.5492656,0.15 30.3234394,0 29.9847001,0 L24.75306,0 C24.4143207,0 24.1884945,0.15 24.1132191,0.525 L17.8653611,29.3625 C17.752448,29.775 17.9406365,30 18.3546512,30 L22.3818849,30 C22.7206242,30 22.9088127,29.8125 22.9840881,29.475 L24.000306,24 L30.6998164,24 L31.753672,29.475 C31.8289474,29.8125 32.0171359,30 32.3558752,30 L36.3454712,30 Z M29.7588739,19.65 L24.9412485,19.65 L27.3500612,6.5625 L29.7588739,19.65 Z M55.7288862,5.4 C55.7288862,1.875 53.8470012,0 50.3090575,0 L40.8619951,0 C40.4856181,0 40.2597919,0.225 40.2597919,0.6 L40.2597919,29.4 C40.2597919,29.775 40.4856181,30 40.8619951,30 L44.7763158,30 C45.1526928,30 45.378519,29.775 45.378519,29.4 L45.378519,19.95 L47.9755202,19.95 L50.497246,29.475 C50.5725214,29.8125 50.7607099,30 51.1370869,30 L55.0514076,30 C55.4654223,30 55.6912485,29.775 55.5783354,29.325 L52.9813341,19.5 C54.7879437,18.7125 55.7288862,17.0625 55.7288862,14.55 L55.7288862,5.4 Z M45.378519,15 L45.378519,4.95 L49.1046512,4.95 C50.0832313,4.95 50.6101591,5.475 50.6101591,6.45 L50.6101591,13.5 C50.6101591,14.475 50.0832313,15 49.1046512,15 L45.378519,15 Z M74.5853733,5.4 C74.5853733,1.875 72.6658507,0 69.1655447,0 L64.9501224,0 C61.4121787,0 59.4926561,1.875 59.4926561,5.4 L59.4926561,24.6 C59.4926561,28.125 61.4121787,30 64.9501224,30 L69.1655447,30 C72.6658507,30 74.5853733,28.125 74.5853733,24.6 L74.5853733,20.55 C74.5853733,20.175 74.3595471,19.95 73.9831701,19.95 L70.2194002,19.95 C69.8053856,19.95 69.6171971,20.175 69.6171971,20.55 L69.6171971,23.55 C69.6171971,24.5625 69.0902693,25.05 68.1116891,25.05 L66.1545288,25.05 C65.1759486,25.05 64.6490208,24.5625 64.6490208,23.55 L64.6490208,6.45 C64.6490208,5.475 65.1383109,4.95 66.1545288,4.95 L68.1116891,4.95 C69.0902693,4.95 69.6171971,5.475 69.6171971,6.45 L69.6171971,9.45 C69.6171971,9.825 69.8053856,10.05 70.2194002,10.05 L73.9831701,10.05 C74.3595471,10.05 74.5853733,9.825 74.5853733,9.45 L74.5853733,5.4 Z M93.3665851,0.6 C93.3665851,0.225 93.2160343,0 92.7643819,0 L78.9137087,0 C78.5749694,0 78.3491432,0.225 78.3491432,0.6 L78.3491432,29.4 C78.3491432,29.775 78.5749694,30 78.9137087,30 L92.7643819,30 C93.2160343,30 93.3665851,29.775 93.3665851,29.4 L93.3665851,25.65 C93.3665851,25.2375 93.2160343,25.05 92.7643819,25.05 L83.3549572,25.05 L83.3549572,17.475 L90.5437576,17.475 C90.9201346,17.475 91.1459608,17.25 91.1459608,16.8375 L91.1459608,13.125 C91.1459608,12.7125 90.9201346,12.4875 90.5437576,12.4875 L83.3549572,12.4875 L83.3549572,4.9875 L92.7643819,4.9875 C93.2160343,4.9875 93.3665851,4.725 93.3665851,4.35 L93.3665851,0.6 Z M102.249082,25.05 L111.206854,25.05 C111.620869,25.05 111.809058,25.275 111.809058,25.65 L111.809058,29.4 C111.809058,29.8125 111.620869,30 111.206854,30 L97.7325581,30 C97.3561812,30 97.130355,29.8125 97.130355,29.4 L97.130355,0.6 C97.130355,0.225 97.3561812,0 97.7325581,0 L101.646879,0 C102.060894,0 102.249082,0.225 102.249082,0.6 L102.249082,25.05 Z" id="BARCEL"></path>
                        <path d="M115.422277,19.71 C115.422277,23 117.178703,24.75 120.480783,24.75 L124.415177,24.75 C127.717258,24.75 129.473684,23 129.473684,19.71 L129.473684,5.29 C129.473684,2 127.717258,0.25 124.415177,0.25 L120.480783,0.25 C117.178703,0.25 115.422277,2 115.422277,5.29 L115.422277,19.71 Z M121.394125,20.235 C120.480783,20.235 119.988984,19.78 119.988984,18.835 L119.988984,6.165 C119.988984,5.255 120.480783,4.765 121.394125,4.765 L123.64235,4.765 C124.555692,4.765 125.047491,5.255 125.047491,6.165 L125.047491,18.835 C125.047491,19.78 124.555692,20.235 123.64235,20.235 L121.394125,20.235 Z" id="o"></path>
                        <path d="M144.547583,0 C144.133568,0 143.945379,0.225 143.945379,0.6 L143.945379,16.425 L143.719553,16.425 L137.998623,0.4875 C137.88571,0.15 137.659884,0 137.321144,0 L133.595012,0 C133.218635,0 132.992809,0.225 132.992809,0.6 L132.992809,29.4 C132.992809,29.775 133.218635,30 133.595012,30 L137.509333,30 C137.923348,30 138.111536,29.775 138.111536,29.4 L138.111536,13.5 L138.299725,13.5 L144.058293,29.5125 C144.171206,29.85 144.397032,30 144.735771,30 L148.461903,30 C148.83828,30 149.064106,29.775 149.064106,29.4 L149.064106,0.6 C149.064106,0.225 148.83828,0 148.461903,0 L144.547583,0 Z M170.969247,30 C171.4209,30 171.57145,29.775 171.496175,29.3625 L165.248317,0.525 C165.173042,0.15 164.947215,0 164.608476,0 L159.376836,0 C159.038097,0 158.812271,0.15 158.736995,0.525 L152.489137,29.3625 C152.376224,29.775 152.564412,30 152.978427,30 L157.005661,30 C157.3444,30 157.532589,29.8125 157.607864,29.475 L158.624082,24 L165.323592,24 L166.377448,29.475 C166.452723,29.8125 166.640912,30 166.979651,30 L170.969247,30 Z M164.38265,19.65 L159.565024,19.65 L161.973837,6.5625 L164.38265,19.65 Z" id="NA"></path>
                        <rect id="Rectangle-8" x="115.422277" y="26.75" width="14.0514076" height="3.25" rx="1"></rect>
                    </g>
                    <g id="Group" opacity="0.300000012" transform="translate(0.697674, 0.000000)" fill="#607D8B">
                        <path d="M15.1930845,5.4 C15.1930845,1.875 13.2735618,0 9.73561812,0 L0.702570379,0 C0.32619339,0 0.100367197,0.1875 0.100367197,0.6 L0.100367197,29.4 C0.100367197,29.775 0.32619339,30 0.702570379,30 L9.73561812,30 C13.2735618,30 15.1930845,28.125 15.1930845,24.6 L15.1930845,17.7 C15.1930845,16.3125 14.1768666,15.2625 12.8219094,15.0375 L12.8219094,14.9625 C14.1768666,14.7375 15.1930845,13.6875 15.1930845,12.3 L15.1930845,5.4 Z M10.1872705,11.0625 C10.1872705,12 9.66034272,12.525 8.68176255,12.525 L5.25673195,12.525 L5.25673195,4.95 L8.68176255,4.95 C9.69798042,4.95 10.1872705,5.475 10.1872705,6.45 L10.1872705,11.0625 Z M10.1872705,23.55 C10.1872705,24.5625 9.66034272,25.05 8.68176255,25.05 L5.25673195,25.05 L5.25673195,17.475 L8.68176255,17.475 C9.69798042,17.475 10.1872705,18 10.1872705,18.975 L10.1872705,23.55 Z M36.3454712,30 C36.7971236,30 36.9476744,29.775 36.872399,29.3625 L30.624541,0.525 C30.5492656,0.15 30.3234394,0 29.9847001,0 L24.75306,0 C24.4143207,0 24.1884945,0.15 24.1132191,0.525 L17.8653611,29.3625 C17.752448,29.775 17.9406365,30 18.3546512,30 L22.3818849,30 C22.7206242,30 22.9088127,29.8125 22.9840881,29.475 L24.000306,24 L30.6998164,24 L31.753672,29.475 C31.8289474,29.8125 32.0171359,30 32.3558752,30 L36.3454712,30 Z M29.7588739,19.65 L24.9412485,19.65 L27.3500612,6.5625 L29.7588739,19.65 Z M55.7288862,5.4 C55.7288862,1.875 53.8470012,0 50.3090575,0 L40.8619951,0 C40.4856181,0 40.2597919,0.225 40.2597919,0.6 L40.2597919,29.4 C40.2597919,29.775 40.4856181,30 40.8619951,30 L44.7763158,30 C45.1526928,30 45.378519,29.775 45.378519,29.4 L45.378519,19.95 L47.9755202,19.95 L50.497246,29.475 C50.5725214,29.8125 50.7607099,30 51.1370869,30 L55.0514076,30 C55.4654223,30 55.6912485,29.775 55.5783354,29.325 L52.9813341,19.5 C54.7879437,18.7125 55.7288862,17.0625 55.7288862,14.55 L55.7288862,5.4 Z M45.378519,15 L45.378519,4.95 L49.1046512,4.95 C50.0832313,4.95 50.6101591,5.475 50.6101591,6.45 L50.6101591,13.5 C50.6101591,14.475 50.0832313,15 49.1046512,15 L45.378519,15 Z M74.5853733,5.4 C74.5853733,1.875 72.6658507,0 69.1655447,0 L64.9501224,0 C61.4121787,0 59.4926561,1.875 59.4926561,5.4 L59.4926561,24.6 C59.4926561,28.125 61.4121787,30 64.9501224,30 L69.1655447,30 C72.6658507,30 74.5853733,28.125 74.5853733,24.6 L74.5853733,20.55 C74.5853733,20.175 74.3595471,19.95 73.9831701,19.95 L70.2194002,19.95 C69.8053856,19.95 69.6171971,20.175 69.6171971,20.55 L69.6171971,23.55 C69.6171971,24.5625 69.0902693,25.05 68.1116891,25.05 L66.1545288,25.05 C65.1759486,25.05 64.6490208,24.5625 64.6490208,23.55 L64.6490208,6.45 C64.6490208,5.475 65.1383109,4.95 66.1545288,4.95 L68.1116891,4.95 C69.0902693,4.95 69.6171971,5.475 69.6171971,6.45 L69.6171971,9.45 C69.6171971,9.825 69.8053856,10.05 70.2194002,10.05 L73.9831701,10.05 C74.3595471,10.05 74.5853733,9.825 74.5853733,9.45 L74.5853733,5.4 Z M93.3665851,0.6 C93.3665851,0.225 93.2160343,0 92.7643819,0 L78.9137087,0 C78.5749694,0 78.3491432,0.225 78.3491432,0.6 L78.3491432,29.4 C78.3491432,29.775 78.5749694,30 78.9137087,30 L92.7643819,30 C93.2160343,30 93.3665851,29.775 93.3665851,29.4 L93.3665851,25.65 C93.3665851,25.2375 93.2160343,25.05 92.7643819,25.05 L83.3549572,25.05 L83.3549572,17.475 L90.5437576,17.475 C90.9201346,17.475 91.1459608,17.25 91.1459608,16.8375 L91.1459608,13.125 C91.1459608,12.7125 90.9201346,12.4875 90.5437576,12.4875 L83.3549572,12.4875 L83.3549572,4.9875 L92.7643819,4.9875 C93.2160343,4.9875 93.3665851,4.725 93.3665851,4.35 L93.3665851,0.6 Z M102.249082,25.05 L111.206854,25.05 C111.620869,25.05 111.809058,25.275 111.809058,25.65 L111.809058,29.4 C111.809058,29.8125 111.620869,30 111.206854,30 L97.7325581,30 C97.3561812,30 97.130355,29.8125 97.130355,29.4 L97.130355,0.6 C97.130355,0.225 97.3561812,0 97.7325581,0 L101.646879,0 C102.060894,0 102.249082,0.225 102.249082,0.6 L102.249082,25.05 Z" id="BARCEL"></path>
                        <path d="M115.422277,19.71 C115.422277,23 117.178703,24.75 120.480783,24.75 L124.415177,24.75 C127.717258,24.75 129.473684,23 129.473684,19.71 L129.473684,5.29 C129.473684,2 127.717258,0.25 124.415177,0.25 L120.480783,0.25 C117.178703,0.25 115.422277,2 115.422277,5.29 L115.422277,19.71 Z M121.394125,20.235 C120.480783,20.235 119.988984,19.78 119.988984,18.835 L119.988984,6.165 C119.988984,5.255 120.480783,4.765 121.394125,4.765 L123.64235,4.765 C124.555692,4.765 125.047491,5.255 125.047491,6.165 L125.047491,18.835 C125.047491,19.78 124.555692,20.235 123.64235,20.235 L121.394125,20.235 Z" id="o"></path>
                        <path d="M144.547583,0 C144.133568,0 143.945379,0.225 143.945379,0.6 L143.945379,16.425 L143.719553,16.425 L137.998623,0.4875 C137.88571,0.15 137.659884,0 137.321144,0 L133.595012,0 C133.218635,0 132.992809,0.225 132.992809,0.6 L132.992809,29.4 C132.992809,29.775 133.218635,30 133.595012,30 L137.509333,30 C137.923348,30 138.111536,29.775 138.111536,29.4 L138.111536,13.5 L138.299725,13.5 L144.058293,29.5125 C144.171206,29.85 144.397032,30 144.735771,30 L148.461903,30 C148.83828,30 149.064106,29.775 149.064106,29.4 L149.064106,0.6 C149.064106,0.225 148.83828,0 148.461903,0 L144.547583,0 Z M170.969247,30 C171.4209,30 171.57145,29.775 171.496175,29.3625 L165.248317,0.525 C165.173042,0.15 164.947215,0 164.608476,0 L159.376836,0 C159.038097,0 158.812271,0.15 158.736995,0.525 L152.489137,29.3625 C152.376224,29.775 152.564412,30 152.978427,30 L157.005661,30 C157.3444,30 157.532589,29.8125 157.607864,29.475 L158.624082,24 L165.323592,24 L166.377448,29.475 C166.452723,29.8125 166.640912,30 166.979651,30 L170.969247,30 Z M164.38265,19.65 L159.565024,19.65 L161.973837,6.5625 L164.38265,19.65 Z" id="NA"></path>
                        <rect id="Rectangle-8" x="115.422277" y="26.75" width="14.0514076" height="3.25" rx="1"></rect>
                    </g>
                    <path d="M15.0818028,5.4 C15.0818028,1.875 13.1636683,0 9.62828308,0 L0.601767693,0 C0.225662885,0 0,0.1875 0,0.6 L0,29.4 C0,29.775 0.225662885,30 0.601767693,30 L9.62828308,30 C13.1636683,30 15.0818028,28.125 15.0818028,24.6 L15.0818028,17.7 C15.0818028,16.3125 14.0663198,15.2625 12.7123425,15.0375 L12.7123425,14.9625 C14.0663198,14.7375 15.0818028,13.6875 15.0818028,12.3 L15.0818028,5.4 Z M10.0796089,11.0625 C10.0796089,12 9.55306212,12.525 8.57518962,12.525 L5.15263587,12.525 L5.15263587,4.95 L8.57518962,4.95 C9.5906726,4.95 10.0796089,5.475 10.0796089,6.45 L10.0796089,11.0625 Z M10.0796089,23.55 C10.0796089,24.5625 9.55306212,25.05 8.57518962,25.05 L5.15263587,25.05 L5.15263587,17.475 L8.57518962,17.475 C9.5906726,17.475 10.0796089,18 10.0796089,18.975 L10.0796089,23.55 Z M36.218893,30 C36.6702188,30 36.8206607,29.775 36.7454397,29.3625 L30.5020999,0.525 C30.426879,0.15 30.2012161,0 29.8627217,0 L24.6348649,0 C24.2963706,0 24.0707077,0.15 23.9954867,0.525 L17.7521469,29.3625 C17.6393155,29.775 17.8273679,30 18.2410832,30 L22.2654046,30 C22.603899,30 22.7919514,29.8125 22.8671723,29.475 L23.8826553,24 L30.5773209,24 L31.6304143,29.475 C31.7056353,29.8125 31.8936877,30 32.232182,30 L36.218893,30 Z M29.6370589,19.65 L24.8229173,19.65 L27.2299881,6.5625 L29.6370589,19.65 Z M55.5882906,5.4 C55.5882906,1.875 53.7077666,0 50.1723814,0 L40.7321507,0 C40.3560459,0 40.130383,0.225 40.130383,0.6 L40.130383,29.4 C40.130383,29.775 40.3560459,30 40.7321507,30 L44.6436407,30 C45.0197455,30 45.2454084,29.775 45.2454084,29.4 L45.2454084,19.95 L47.8405316,19.95 L50.3604338,29.475 C50.4356547,29.8125 50.6237071,30 50.9998119,30 L54.9113019,30 C55.3250172,30 55.5506801,29.775 55.4378487,29.325 L52.8427255,19.5 C54.6480286,18.7125 55.5882906,17.0625 55.5882906,14.55 L55.5882906,5.4 Z M45.2454084,15 L45.2454084,4.95 L48.968846,4.95 C49.9467185,4.95 50.4732652,5.475 50.4732652,6.45 L50.4732652,13.5 C50.4732652,14.475 49.9467185,15 48.968846,15 L45.2454084,15 Z M74.4311415,5.4 C74.4311415,1.875 72.513007,0 69.0152322,0 L64.8028584,0 C61.2674732,0 59.3493387,1.875 59.3493387,5.4 L59.3493387,24.6 C59.3493387,28.125 61.2674732,30 64.8028584,30 L69.0152322,30 C72.513007,30 74.4311415,28.125 74.4311415,24.6 L74.4311415,20.55 C74.4311415,20.175 74.2054786,19.95 73.8293738,19.95 L70.0683257,19.95 C69.6546104,19.95 69.466558,20.175 69.466558,20.55 L69.466558,23.55 C69.466558,24.5625 68.9400113,25.05 67.9621388,25.05 L66.0063938,25.05 C65.0285213,25.05 64.5019746,24.5625 64.5019746,23.55 L64.5019746,6.45 C64.5019746,5.475 64.9909108,4.95 66.0063938,4.95 L67.9621388,4.95 C68.9400113,4.95 69.466558,5.475 69.466558,6.45 L69.466558,9.45 C69.466558,9.825 69.6546104,10.05 70.0683257,10.05 L73.8293738,10.05 C74.2054786,10.05 74.4311415,9.825 74.4311415,9.45 L74.4311415,5.4 Z M93.1987714,0.6 C93.1987714,0.225 93.0483295,0 92.5970037,0 L78.7563468,0 C78.4178524,0 78.1921896,0.225 78.1921896,0.6 L78.1921896,29.4 C78.1921896,29.775 78.4178524,30 78.7563468,30 L92.5970037,30 C93.0483295,30 93.1987714,29.775 93.1987714,29.4 L93.1987714,25.65 C93.1987714,25.2375 93.0483295,25.05 92.5970037,25.05 L83.1943835,25.05 L83.1943835,17.475 L90.3779853,17.475 C90.7540901,17.475 90.979753,17.25 90.979753,16.8375 L90.979753,13.125 C90.979753,12.7125 90.7540901,12.4875 90.3779853,12.4875 L83.1943835,12.4875 L83.1943835,4.9875 L92.5970037,4.9875 C93.0483295,4.9875 93.1987714,4.725 93.1987714,4.35 L93.1987714,0.6 Z M102.074845,25.05 L111.026139,25.05 C111.439855,25.05 111.627907,25.275 111.627907,25.65 L111.627907,29.4 C111.627907,29.8125 111.439855,30 111.026139,30 L97.5615872,30 C97.1854824,30 96.9598195,29.8125 96.9598195,29.4 L96.9598195,0.6 C96.9598195,0.225 97.1854824,0 97.5615872,0 L101.473077,0 C101.886792,0 102.074845,0.225 102.074845,0.6 L102.074845,25.05 Z" id="BARCEL" fill="#F5F5F5"></path>
                    <path d="M115.116279,19.3953488 C115.116279,22.6744186 116.860465,24.4186047 120.139535,24.4186047 L124.046512,24.4186047 C127.325581,24.4186047 129.069767,22.6744186 129.069767,19.3953488 L129.069767,5.02325581 C129.069767,1.74418605 127.325581,0 124.046512,0 L120.139535,0 C116.860465,0 115.116279,1.74418605 115.116279,5.02325581 L115.116279,19.3953488 Z M121.046512,19.9186047 C120.139535,19.9186047 119.651163,19.4651163 119.651163,18.5232558 L119.651163,5.89534884 C119.651163,4.98837209 120.139535,4.5 121.046512,4.5 L123.27907,4.5 C124.186047,4.5 124.674419,4.98837209 124.674419,5.89534884 L124.674419,18.5232558 C124.674419,19.4651163 124.186047,19.9186047 123.27907,19.9186047 L121.046512,19.9186047 Z" id="o" fill="#F5F5F5"></path>
                    <path d="M144.765667,0 C144.353262,0 144.165805,0.225 144.165805,0.6 L144.165805,16.425 L143.940857,16.425 L138.242167,0.4875 C138.129693,0.15 137.904745,0 137.567323,0 L133.855676,0 C133.480762,0 133.255814,0.225 133.255814,0.6 L133.255814,29.4 C133.255814,29.775 133.480762,30 133.855676,30 L137.754779,30 C138.167185,30 138.354642,29.775 138.354642,29.4 L138.354642,13.5 L138.542098,13.5 L144.278279,29.5125 C144.390754,29.85 144.615702,30 144.953124,30 L148.664771,30 C149.039685,30 149.264633,29.775 149.264633,29.4 L149.264633,0.6 C149.264633,0.225 149.039685,0 148.664771,0 L144.765667,0 Z M171.084615,30 C171.534512,30 171.684477,29.775 171.609495,29.3625 L165.385926,0.525 C165.310943,0.15 165.085995,0 164.748572,0 L159.537271,0 C159.199848,0 158.9749,0.15 158.899917,0.525 L152.676348,29.3625 C152.563874,29.775 152.751331,30 153.163736,30 L157.175314,30 C157.512736,30 157.700193,29.8125 157.775176,29.475 L158.787443,24 L165.460909,24 L166.510667,29.475 C166.58565,29.8125 166.773107,30 167.110529,30 L171.084615,30 Z M164.523624,19.65 L159.724728,19.65 L162.124176,6.5625 L164.523624,19.65 Z" id="NA" fill="#F5F5F5"></path>
                    <rect id="Rectangle-8" fill="#F5F5F5" x="115.116279" y="26.5116279" width="13.9534884" height="3.48837209" rx="1"></rect>
                </g>
            </g>
        </g>
    </g>
</svg>